<svg id="Layer_1" data-name="Layer 1" xmlns="http://www.w3.org/2000/svg" viewBox="0 0 1011 309.8"><title>light-logo</title><path d="M1,141a28,28,0,0,0,1.68-4.4C16.51,67.47,90,32.73,152,66l2.21,1.18C168.85,45,183.47,22.83,198.39.2c1.6,2.31,2.93,4.15,4.18,6.05,29.94,45.46,59.53,91.16,89.88,136.34,45,66.94,3,151.76-72.54,165.41-2.67.49-5.27,1.33-7.91,2H185a22.28,22.28,0,0,0-3.54-1.18c-32.3-5.21-58.33-20.6-76.89-47.79-2.35-3.45-4.81-4.68-8.82-4.92-46-2.84-84.27-36.85-92.95-82.26A31,31,0,0,0,1,169V141ZM198.47,16.66C186,35.55,174,53.86,162,72c35.26,28.93,50.32,65.26,38.34,109.38-11.92,43.9-43.14,67.83-88,75.2,1.64,2.18,2.85,3.95,4.21,5.58,26.87,32,61.43,43.6,102,36.71,68.81-11.7,107.85-90,66.17-151.45C266,119.82,248,91.81,229.66,64Zm-96,230.65a92.47,92.47,0,0,0,92.66-92.26c.14-50.92-41.32-92.59-92.3-92.77C52,62.1,10.15,103.84,10.1,154.68A92.55,92.55,0,0,0,102.43,247.31Z" transform="translate(-1 -0.2)" style="fill:#fff"/><path d="M1012,119a34.17,34.17,0,0,1-5.69,1c-21.62.07-43.24,0-64.83,0-1,8.14,5.13,17.4,13,20,12.69,4.19,22.55,1.09,31.82-9.54,1-1.13,4-1.3,5.71-.84,6.35,1.67,12.58,3.8,19.71,6-1.8,2.91-3.14,5.82-5.13,8.17-9.5,11.19-21.45,17.7-36.35,18.19-10.32.33-20.56.6-30.31-3.94-14.61-6.78-23.24-17.88-26-33.79a58.44,58.44,0,0,1,1.89-27.93c5.13-16.41,16.59-25.78,32.67-29.14,12.17-2.54,24.77-2.78,36.77,1.82,13.53,5.2,22,14.91,24.74,29.3.56,2.91,1.31,5.78,2,8.67Zm-29.39-16c-1.45-11.73-10-19.26-22.46-18-8.27.85-16.45,6.17-18.43,18Z" transform="translate(-1 -0.2)" style="fill:#fff"/><path d="M1,156v0Z" transform="translate(-1 -0.2)" style="fill:#fff"/><path d="M1,149v0Z" transform="translate(-1 -0.2)" style="fill:#fff"/><path d="M377.29,20c18.87,0,37.57-1.06,56.09.31,18.19,1.33,34.63,10.24,39.7,29.39,4.58,17.26,3.14,33.81-10.49,47.06-8,7.81-18.29,11.33-29.35,12.21-8.87.7-17.77,1-27.24,1.54V160.7H377.29Zm29,24.53V85.32c7.7-.46,15.09-.82,22.46-1.36,8.57-.64,16.75-8.19,17.27-15.61,1-13.78-3-19.58-14.39-22.12C423.56,44.43,415,45,406.29,44.5Z" transform="translate(-1 -0.2)" style="fill:#fff"/><path d="M830.2,120c-.29,9.37,6,19,16.29,21,11.55,2.23,21.34-.56,28.76-10.36.88-1.15,3.9-1.51,5.62-1.06,6.35,1.67,12.58,3.84,19.81,6.12-1.86,3-3.27,6-5.35,8.42-9.68,11.34-21.88,17.58-37,18-10.19.27-20.33.45-29.81-4.07-14.27-6.8-22.93-17.87-25.58-33.65a58.65,58.65,0,0,1,1.88-27.95C810,79.93,821.42,70.54,837.51,67.2c12-2.49,24.38-2.72,36.32,1.72C887.71,74.09,896.2,83.84,899,98.38c1,5.11,1.33,10.32,2,15.48.67,4.67-.94,6.32-5.94,6.24-19.82-.29-39.65-.12-59.48-.12Zm41.27-17.07c-2-11-8.53-17.46-17.13-18-14.06-.9-21.59,7.23-23.81,18Z" transform="translate(-1 -0.2)" style="fill:#fff"/><path d="M601.24,95.1c-1.92-3.4-3.62-6.31-5.25-9.27s-3.19-6-5.35-10c6.08-2.45,12.07-5.48,18.41-7.29,16.79-4.79,33.54-6,49.8,2.39,8.57,4.41,14,10.94,14.11,20.86.14,22.88,0,45.76,0,68.92H648.13V149.09c-7.08,8.37-15.64,12.29-25.94,12.94-9.33.59-18.19-.18-26.06-6-7-5.16-10.8-11.72-11.22-20.56-.45-9.52,1.18-18.32,9.33-23.93a52.17,52.17,0,0,1,17-7.38c12.59-3.07,24.81-.29,37.3,4.88-.72-5.07-1-9.67-2.08-14-1.79-6.9-9.71-9.68-18.62-8.7-8.29.91-16.3,4.48-24.41,7C602.66,93.48,602.12,94.32,601.24,95.1Zm28.28,24.16-.15.72c-2,0-4-.11-6,0-5.84.39-10.83,4.32-11.38,8.85-.79,6.55,2.62,12.65,8.76,13.87a28.21,28.21,0,0,0,12.8-.16c6.47-1.86,11.06-6.75,13.14-13.18,1-3,1.62-6.94-3.89-7.53C638.34,121.38,634,120.16,629.52,119.26Z" transform="translate(-1 -0.2)" style="fill:#fff"/><path d="M543,108.65V103.8c0-12.72-5.7-18.15-18.72-17.82-8.09.21-20.68,4.34-27.51,9.12L486.56,76.15c4-1.76,7.81-3.56,11.73-5.19,16.31-6.78,33-8.37,50-2.91,9.48,3,17.09,8.62,20.11,18.81a11.79,11.79,0,0,1,.61,3.3q.06,34.5,0,69a10.62,10.62,0,0,1-.27,1.62H543V150.7c-12.1,11.58-26,13.4-40.85,10.23-10.77-2.3-22.67-14-21.36-26.19.67-6.16.06-12.36,3.75-17.88,5.12-7.67,12.75-11.39,21.34-12.77C521.56,101.59,530.37,103.77,543,108.65Zm-18,10.6-.15.73c-2.15,0-4.31-.1-6.46,0-4.21.24-9.38,4.21-10.3,7.78-1.24,4.77.49,10.52,4.09,12.83,12.06,7.74,27.75,0,30.74-12.8.67-2.85.28-5.4-3.69-5.91C534.45,121.28,529.74,120.16,525,119.25Z" transform="translate(-1 -0.2)" style="fill:#fff"/><path d="M724,160.85H697.3V67.28h26.5V76.5c5.57-3.21,10.92-7.37,17-9.56,14.5-5.26,30.9,0,37.86,12.57a44,44,0,0,1,5.12,19.34c.64,20.47.24,41,.24,61.8H756.23c-.07-1.22-.22-2.65-.22-4.07,0-17.67.17-35.34-.15-53a24.65,24.65,0,0,0-3-11.93c-3.7-6.09-10.39-7.33-18.36-4.67A15.56,15.56,0,0,0,724,101.41C724,121.06,724,140.71,724,160.85Z" transform="translate(-1 -0.2)" style="fill:#fff"/><path d="M435.8,220c-15-14.15-29.75-12.35-38.57-3.39-10.33,10.5-9.73,25-.31,34.46,9.64,9.7,23.86,10.86,39.08-3.17,0,5.07.12,9.63-.1,14.16,0,.94-1.24,2-2.15,2.69-12.79,9.51-34.92,7.28-46.28-3.52-13-12.39-15.09-33.9-5.16-48.59a35.35,35.35,0,0,1,37.29-14.74c1.87.43,3.95.27,5.69,1C436.56,203.37,436.59,203.52,435.8,220Z" transform="translate(-1 -0.2)" style="fill:#fff"/><path d="M572,269.88H560V242c0-7-2.55-11-7-11-5.38,0-9,4.35-9,11.06,0,9.13,0,18.26,0,27.66H532c0-9.92,0-19.86,0-29.79,0-5-2.69-8.58-6.52-8.93s-8.08,3.4-8.41,8.13c-.71,10-1,20.09-1.57,30.51H505.34v-46.3h10.47c.09,1.23.21,2.7.35,4.47,6.25-8.4,17.64-8.33,26.35.11,4.19-4.84,9.42-6.5,16-6.08,10.65.69,12.59,7.06,13.32,15.68C572.69,248.08,572,258.78,572,269.88Z" transform="translate(-1 -0.2)" style="fill:#fff"/><path d="M596.43,228.1c7.26-8,15.65-8.71,24.38-5,6.75,2.89,12.89,10,13.23,20.45.24,7-.62,13.59-5.29,19.17-7.76,9.27-22.62,11.7-32.49,1.2v26.74H584.32V223.35h11.39C595.9,224.61,596.14,226.17,596.43,228.1ZM596,245.85A13.36,13.36,0,0,0,609.19,260c6.43,0,12.87-7.18,12.81-14.08S615.42,232,609,232C601.79,232,596,238.14,596,245.85Z" transform="translate(-1 -0.2)" style="fill:#fff"/><path d="M469.76,270c-13.27,2.07-25.43-11.18-24.91-24.38.52-13.47,10-24.87,25.82-24.11,17.13.81,24.57,9.25,25.05,24.36C496.11,258.47,488.42,270.76,469.76,270ZM483,245.83c0-8-5.32-13.68-12.54-13.89-7.39-.2-13.34,7.28-13.42,14-.08,6.49,5.76,14.23,13.24,14.13S483,254.22,483,245.83Z" transform="translate(-1 -0.2)" style="fill:#fff"/><path d="M670.78,242.74c.5-9.14-4.65-13.33-13.18-10.93-2.58.72-5,2.06-7.63,2.58a5.38,5.38,0,0,1-4.17-1.23c-1.57-1.55-2.57-3.68-4-5.87,10.31-5.83,20.93-8.43,32-3.78,4.8,2,8.46,5.79,8.28,12.15-.32,11.28-.09,22.58-.09,34.1H671.14c-.08-1.45-.17-2.87-.27-4.6-7.49,5.85-15.58,6.54-24,3.18-5.78-2.33-8.61-8.87-7.84-14.46.79-5.79,4.48-11.38,11.47-12.89C658.06,239.36,660.4,239.52,670.78,242.74Zm.23,7.69c-3.83-.85-7.35-2.12-10.92-2.31-4.57-.24-9.06,3.31-9.08,6.34,0,3.6,4.22,6.48,9.26,6.57C666.86,261.14,669.16,256.69,671,250.43Z" transform="translate(-1 -0.2)" style="fill:#fff"/><path d="M759.76,290.89H746.87c3.12-7.11,5.67-14.2,9.27-20.71,2.76-5,1.9-9.17-.31-13.78-5.27-11-10.39-22.08-15.62-33.24,14.53-.65,14.51-.65,19.77,13.78,1.7,4.65,3.51,9.26,5.48,14.45,3.85-9.69,7.45-18.79,11.18-28.2h13Z" transform="translate(-1 -0.2)" style="fill:#fff"/><path d="M705.55,269.87H694.28V223.29h11.49c.14,1,.3,2.14.57,4.08,5.23-7.26,12.22-6.11,18.84-5.18,4.94.68,9.65,6.61,9.75,11.93.22,11.78.07,23.57.07,35.61H723q0-14.66,0-29.29c0-5.91-2.84-9.45-7.51-9.45a9.22,9.22,0,0,0-9.48,9.56c-.06,9.49,0,19-.07,28.45C705.94,269.15,705.82,269.29,705.55,269.87Z" transform="translate(-1 -0.2)" style="fill:#fff"/><path d="M184.66,261.33c.79,4.73,1.59,9.46,2.46,14.66l-8.72,1.87-6.6-33,32.92-6.59c.61,2.81,1.19,5.47,1.9,8.78l-17.72,3.82c11.89,11.5,41.72,15.86,62.57-3.65,19.61-18.33,23.35-52.76-2.85-75.92L254,164.4c11,8.82,18.14,19.75,20.85,33.19,4.92,24.45-2.24,45.15-22.13,60.18s-41.68,16-64,4.74c-1.18-.6-2.36-1.18-3.55-1.77l-.67-.46Z" transform="translate(-1 -0.2)" style="fill:#fff"/><path d="M225.71,161.19l-8.31-.58v-9.09l9.64.61Z" transform="translate(-1 -0.2)" style="fill:#fff"/><path d="M241.35,166.7l-7.55-3.38c1-2.82,1.9-5.51,3-8.67l8.88,4Z" transform="translate(-1 -0.2)" style="fill:#fff"/><path d="M65.23,126.76l-2-10.64,8.59-2.18c1.41,6,2.74,11.82,4.12,17.59s10.44,9.68,15.64,6.9c3.93-2.1,7.16-3.91,6.65-9.56-.39-4.36-.8-7.88-4.55-10.77-3.91-3-7.33-6.68-11.19-10.27l6.14-6.51,9,8c.89-5.58.58-9.82-4.13-13.18-3.88-2.79-7.13-6.46-11-10.08l6.1-6.57,9.19,8.17V74.46H107V88l9.51-8.6L122.69,86c-3.45,3.23-6.51,6.5-10,9.23-4.43,3.48-7.15,7.37-5,13.8l8.85-7.64,6.12,6.48c-4.52,4.2-8.79,8.11-13,12.08-4.67,4.41-3.61,14.07,1.84,17.24,8.19,4.76,16.17,1.23,18.33-8.11,1.12-4.84,2.22-9.7,3.45-15.11l8.73,2c-.79,3.85-1.55,7.51-2.42,11.72,5-1.72,8.44-3.85,9.21-9.26.71-5.07,2.17-10,3.4-15.43l8.71,2.09c-.81,4-1.55,7.66-2.46,12.16l11.75-6.63,4.49,7.73-11.54,6.91,11.72,4c-.82,2.7-1.62,5.3-2.59,8.52-5.17-1.59-10.21-2.67-14.86-4.68-5.23-2.27-8.73.1-13.08,3.28L156,140.13c-.89,2.9-1.7,5.51-2.63,8.56-6-1.82-11.49-3.54-17-5.18-5.92-1.75-14.07,4.24-14.07,10.31,0,9.26,7.31,14.53,16.32,11.74,4.75-1.47,9.5-2.92,14.69-4.51.92,2.8,1.77,5.42,2.78,8.52l-11.34,3.72c3.8,3.42,7.27,5.55,12.42,3.44,4.73-1.94,9.76-3.13,15.06-4.78l2.76,8.52-11.8,4,11.55,6.89-4.45,7.73-11.73-6.52c.88,4.39,1.61,8,2.43,12.09l-8.64,2.09c-1.14-4.77-2.6-9.21-3.18-13.76-.71-5.58-3.2-9.24-9.39-10.74.74,3.74,1.45,7.33,2.28,11.48l-8.62,2.1c-1.41-5.91-2.76-11.67-4.17-17.41-1.49-6.11-10.47-10-15.81-6.92-8.25,4.79-9.12,13.35-2.05,19.9,3.66,3.38,7.29,6.79,11.28,10.51l-6,6.59-9.09-8.06c-.76,5.27-1,9.35,3.6,12.72,4.09,3,7.55,6.91,11.53,10.64l-6.11,6.57L107.27,222v13.33h-9v-13.6l-9.5,8.67-6.2-6.62c3.83-3.56,7.08-7.2,10.95-10,4.65-3.35,5.2-7.53,4.16-13.23l-9,7.94L82.55,202l12.56-11.78c5.13-4.81,4.19-14.41-1.76-17.88-7.53-4.4-15.83-.76-17.82,7.8-1.21,5.15-2.41,10.3-3.67,15.68l-8.72-2.13c.88-4,1.67-7.7,2.56-11.79-5.18,1.93-8.8,4.27-9.42,10-.51,4.75-2.05,9.38-3.25,14.59l-8.82-1.81,2.66-12.24L35.15,199c-1.52-2.46-3-4.89-4.67-7.59l11.72-7-11.74-3.84,2.4-8.61c4.86,1.45,9.61,2.39,13.93,4.29,5.33,2.35,9.51,1.19,13.85-2.86l-11.43-3.88L51.9,161c6.08,1.85,11.76,3.62,17.47,5.3,5.33,1.57,13.52-4.43,13.54-9.84,0-10.13-6.93-15.17-16.72-12.14-4.58,1.41-9.17,2.79-14.26,4.34l-2.64-8.49,11.27-3.76c-3.57-2.8-6.37-5.62-11.4-3.65s-10.42,3.24-16.1,4.94c-.93-2.89-1.76-5.5-2.72-8.49l11.93-3.87-11.77-7L35,110.65l11.83,6.63L44.24,105.2l8.7-2.17c1.07,4.57,2.51,9,3.05,13.52.68,5.58,3.21,9.22,8.59,10.87l1.14,0Zm48.34,27.71c-.45-2-.22-5-1.58-6.18a22.17,22.17,0,0,0-9.47-5.19c-4-.84-10.67,6.43-10.46,10.7.13,2.67-.1,6.19,1.44,7.77,2.41,2.47,6.2,5,9.36,5s6.72-2.81,9.33-5.22C113.51,160.08,113.13,157,113.57,154.47Z" transform="translate(-1 -0.2)" style="fill:#fff"/><path d="M184.58,260.28" transform="translate(-1 -0.2)" style="fill:#fff"/><path d="M65.23,126.76" transform="translate(-1 -0.2)" style="fill:#fff"/></svg>